<?xml version="1.0" encoding="utf-8"?>
<!-- Generator: Adobe Illustrator 25.0.0, SVG Export Plug-In . SVG Version: 6.00 Build 0)  -->
<svg version="1.1" id="Layer_1" xmlns="http://www.w3.org/2000/svg" xmlns:xlink="http://www.w3.org/1999/xlink" x="0px" y="0px"
	 viewBox="0 0 501.7 162.5" style="enable-background:new 0 0 501.7 162.5;" xml:space="preserve">
<style type="text/css">
	.st0{fill:#0075A9;}
	.st1{fill:none;}
</style>
<g>
	<path class="st0" d="M149.6,73.1h6.8v58.5c0,1.8,0.4,3,1,3.6c0.7,0.7,1.9,1,3.6,1c0.2,0,0.6,0,1,0c0.4,0,0.9-0.1,1.4-0.1l1,4
		c-0.5,0.2-1.1,0.5-1.7,0.7c-0.7,0.2-1.3,0.5-2,0.6c-0.7,0.2-1.4,0.3-2.1,0.4c-0.7,0.1-1.3,0.2-1.9,0.2c-2.2,0-4-0.7-5.2-2.2
		c-1.2-1.4-1.8-3.6-1.8-6.5L149.6,73.1L149.6,73.1z"/>
	<path class="st0" d="M171.4,79c0-1,0.4-2,1.1-2.9c0.8-0.9,1.7-1.3,2.9-1.3c1.2,0,2.2,0.4,2.9,1.3c0.7,0.9,1.1,1.8,1.1,2.9
		c0,1.2-0.4,2.2-1.2,3c-0.8,0.8-1.7,1.2-2.8,1.2c-1.1,0-2-0.4-2.8-1.2C171.8,81.2,171.4,80.2,171.4,79 M172.1,94.2h6.8v46.9h-6.8
		V94.2z"/>
	<path class="st0" d="M198.7,94.2c0.2,1,0.4,2.5,0.5,4.5c2.1-1.5,4.3-2.7,6.7-3.7c2.4-1,5.1-1.5,8.2-1.5c1.9,0,3.8,0.4,5.6,1.1
		c1.8,0.8,3.4,2.1,4.7,4.1c5.7-3.5,11.1-5.3,16.2-5.3c2.2,0,4.1,0.4,5.7,1.1c1.6,0.8,2.9,1.7,4,3c1,1.3,1.8,2.8,2.3,4.6
		c0.5,1.7,0.8,3.6,0.8,5.6v33.3h-6.8v-32.7c0-1.6-0.2-2.9-0.6-4.1c-0.4-1.2-1-2.2-1.7-2.9c-0.7-0.8-1.6-1.4-2.6-1.7
		c-1-0.4-2.1-0.6-3.2-0.6c-4.1,0-8.2,1.1-12.1,3.2c0.4,1.7,0.6,3.6,0.6,5.7v33.2h-6.8v-32.6c0-3.2-0.7-5.6-2.1-7.2
		c-1.4-1.6-3.2-2.3-5.5-2.3c-1.9,0-4,0.4-6.4,1.2c-2.4,0.8-4.6,1.9-6.6,3.1v37.7h-6.8V99.7c-0.1-2-0.2-3.8-0.4-5.5
		C192.4,94.2,198.7,94.2,198.7,94.2z"/>
	<path class="st0" d="M272.3,94.3c0.2,1.2,0.4,2.4,0.5,3.4c2.9-1.5,5.5-2.5,7.6-3.2c2.1-0.6,4.2-0.9,6.3-0.9
		c5.9,0,10.3,2.2,13.5,6.5c3.1,4.3,4.7,10.2,4.7,17.5c0,6.9-1.7,12.8-5.2,17.4c-3.5,4.7-8.1,7-13.8,7c-3.2,0-5.8-0.4-7.9-1.1
		c-2.1-0.7-3.8-1.6-5-2.6v22.6h-6.8v-59.7c-0.1-2-0.2-4.3-0.4-6.9L272.3,94.3L272.3,94.3z M285.1,99.4c-2.1,0-4.1,0.2-6,0.8
		c-1.9,0.5-4,1.3-6.1,2.6v29.5c1.2,1.1,2.8,2.1,4.9,2.8c2.1,0.7,4.5,1.1,7.3,1.1c4.2,0,7.4-1.8,9.5-5.3c2.1-3.5,3.2-8,3.2-13.5
		c0-5.8-1.1-10.2-3.4-13.3C292.2,100.9,289.1,99.4,285.1,99.4"/>
	<path class="st0" d="M316.3,79c0-1,0.4-2,1.1-2.9c0.8-0.9,1.7-1.3,3-1.3c1.2,0,2.2,0.4,2.9,1.3c0.7,0.9,1.1,1.8,1.1,2.9
		c0,1.2-0.4,2.2-1.2,3c-0.8,0.8-1.7,1.2-2.8,1.2c-1.1,0-2-0.4-2.8-1.2C316.7,81.2,316.3,80.2,316.3,79 M316.9,94.2h6.8v46.9h-6.8
		V94.2z"/>
	<path class="st0" d="M358,142c-7.3,0-12.7-2.3-16.4-6.8c-3.7-4.6-5.6-10.6-5.6-18.1c0-6.7,2-12.3,6-16.8c4-4.5,9.2-6.7,15.9-6.7
		c6.7,0,12,2.3,15.6,7c3.7,4.7,5.5,10.5,5.5,17.4c0,6.6-2,12.2-5.8,16.9C369.3,139.6,364.2,142,358,142 M357.7,136.4
		c2.3,0,4.4-0.6,6.2-1.7c1.8-1.1,3.6-3.2,5.3-6.1c1.8-2.9,2.6-7,2.6-12c0-4.4-1.2-8.5-3.6-12.1c-2.4-3.6-5.9-5.4-10.6-5.4
		c-4.7,0-8.2,1.7-10.8,5.2c-2.5,3.5-3.8,8-3.8,13.6c0,4.8,0.9,8.6,2.7,11.2c1.8,2.7,3.7,4.5,5.5,5.7
		C353.1,135.9,355.2,136.4,357.7,136.4"/>
	<path class="st0" d="M390.5,73.1h6.8v58.5c0,1.8,0.3,3,1,3.6c0.7,0.7,1.9,1,3.6,1c0.2,0,0.6,0,1,0c0.5,0,0.9-0.1,1.3-0.1l1,4
		c-0.5,0.2-1.1,0.5-1.7,0.7c-0.6,0.2-1.3,0.5-2,0.6c-0.7,0.2-1.4,0.3-2.1,0.4c-0.7,0.1-1.3,0.2-1.9,0.2c-2.2,0-4-0.7-5.2-2.2
		c-1.2-1.4-1.9-3.6-1.9-6.5L390.5,73.1L390.5,73.1z"/>
	<path class="st0" d="M418.3,94.2v31.9c0,3.2,0.8,5.5,2.3,7.2c1.6,1.6,3.6,2.5,6.1,2.5c3.2,0,6.1-0.5,8.6-1.4c2.5-0.9,4.5-2.1,6-3.6
		V94.2h6.8V135c0,1.9,0.2,3.9,0.6,6.1h-6.9c-0.2-1.6-0.4-3.3-0.5-4.9c-1.5,1.2-3.4,2.2-5.6,3.2c-2.2,0.9-4,1.6-5.6,1.9
		c-1.5,0.3-2.9,0.5-4.2,0.5c-5,0-8.6-1.4-10.9-4.2c-2.3-2.8-3.4-6.4-3.4-10.8V94.2H418.3z"/>
	<polygon class="st0" points="456.8,141.2 473,117.1 458.4,94.2 465.7,94.2 476.1,112.5 487.2,94.2 494.5,94.2 479.4,116.8 
		495,141.2 487.6,141.2 476,121.5 464.1,141.2 	"/>
</g>
<g>
	<path class="st1" d="M96.7,105.7L86,105.6c0,0-1.5,1.4-4.5,4.4c-3.4-3.4-18.2-31.3-29.3-37.1c-0.4,0.6-28.3,45.5-28.3,45.5h10
		l12.7-18.7l13.9,18.7h9.8L52.8,92.9l4.4-7l22.6,26.2l-1.3,6.3h24.7l-1.2-5.5L96.7,105.7z"/>
	<path class="st0" d="M111.7,104.8C109.2,72.8,73.3,54,60.5,3.5C43.1,66.4,9.2,71.8,10.4,108c0.3,4.4,2.5,41.7,50.1,44.2
		C111.7,151,112.5,110.6,111.7,104.8z M54.7,65.2c1.8-2.5,5.7-2.7,8.7-0.5c3,2.2,4,6,2.2,8.5c-1.8,2.5-5.7,2.7-8.7,0.5
		C53.9,71.5,52.9,67.7,54.7,65.2z M78.5,118.5l1.3-6.3L57.2,86l-4.4,7l17.5,25.5h-9.8L46.6,99.8l-12.7,18.7h-10
		c0,0,27.9-44.9,28.3-45.5c11.2,5.8,25.9,33.7,29.3,37.1c3-3,4.5-4.4,4.5-4.4l10.7,0.1l5.3,7.3l1.2,5.5H78.5z"/>
</g>
<g>
	<path class="st0" d="M174.7,60.2c-5.3,0-10.2-1.3-14.6-3.8c-4.3-2.5-7.8-6-10.3-10.5c-2.5-4.5-3.8-9.6-3.8-15.3
		c0-5.7,1.3-10.8,3.8-15.3c2.5-4.5,6-8,10.3-10.5c4.3-2.5,9.2-3.8,14.6-3.8c6.2,0,11.6,1.6,16.2,4.6c4.6,3.1,8,7.4,10.1,12.9l-6.8,0
		c-1.7-3.8-4.2-6.8-7.6-9c-3.4-2.2-7.4-3.3-12-3.3c-4.3,0-8.2,1-11.6,3c-3.4,2-6.1,4.8-8.1,8.5c-2,3.7-3,8-3,12.8
		c0,4.8,1,9.2,3,12.8c2,3.7,4.7,6.5,8.1,8.5c3.4,2,7.3,3,11.6,3c4,0,7.7-0.9,10.9-2.6c3.2-1.7,5.8-4.2,7.8-7.5
		c1.9-3.2,3.1-7,3.4-11.3l-24.3,0l0-4.7l30.5,0l0,4.2c-0.3,5.1-1.7,9.7-4.1,13.8c-2.5,4.1-5.8,7.4-10,9.7
		C184.6,59,179.8,60.2,174.7,60.2z"/>
	<path class="st0" d="M194.2,18.6c-1.7-3.8-4.2-6.8-7.6-9c-3.4-2.2-7.4-3.3-12-3.3c-4.3,0-8.2,1-11.6,3c-3.4,2-6.1,4.8-8.1,8.5
		c-2,3.7-3,7.9-3,12.8c0,4.9,1,9.1,3,12.8c2,3.7,4.7,6.5,8.1,8.5c3.4,2,7.3,3,11.6,3c4,0,7.7-0.9,10.9-2.6c3.2-1.7,5.8-4.2,7.8-7.5
		c2-3.2,3.1-7,3.4-11.3h-24.4v-4.7h30.5v4.2c-0.3,5.1-1.7,9.7-4.1,13.8c-2.5,4.1-5.8,7.4-10,9.7c-4.2,2.4-8.8,3.6-14,3.6
		c-5.4,0-10.2-1.3-14.6-3.8c-4.4-2.5-7.8-6-10.3-10.5c-2.5-4.5-3.8-9.6-3.8-15.3c0-5.7,1.3-10.8,3.8-15.3c2.5-4.5,5.9-8,10.3-10.5
		c4.4-2.5,9.2-3.8,14.6-3.8c6.2,0,11.6,1.5,16.2,4.6c4.6,3.1,8,7.4,10.1,12.9H194.2z"/>
	<path class="st0" d="M213.4,59.6l0-45.2l5.8,0l0,8c1.2-2.8,3.2-5,5.8-6.6c2.6-1.5,5.9-2.3,9.7-2.3l0,6.1l-1.6,0
		c-4.2,0-7.6,1.1-10.1,3.4c-2.5,2.3-3.8,6.1-3.8,11.3v25.3H213.4z"/>
	<path class="st0" d="M225.1,15.9c2.6-1.5,5.8-2.3,9.6-2.3v6h-1.6c-4.2,0-7.6,1.1-10.1,3.4c-2.5,2.3-3.8,6-3.8,11.3v25.3h-5.8V14.4
		h5.8v8C220.5,19.6,222.5,17.4,225.1,15.9z"/>
	<path class="st0" d="M261.4,60.4c-5.4,0-9.9-1.7-13.3-5c-3.4-3.3-5.1-8.2-5.1-14.5V14.4l5.7,0l0,25.8c0,4.9,1.2,8.7,3.7,11.3
		c2.4,2.6,5.8,3.9,10.1,3.9c4.3,0,7.8-1.4,10.4-4.1c2.6-2.7,3.9-6.8,3.9-12.2V14.4l5.8,0l0,45.2l-5.8,0l0-8c-1.3,2.8-3.4,5-6.1,6.5
		C267.9,59.6,264.8,60.4,261.4,60.4z"/>
	<path class="st0" d="M282.6,14.4v45.2h-5.8v-8c-1.3,2.8-3.4,5-6.1,6.5c-2.8,1.5-5.9,2.2-9.3,2.2c-5.4,0-9.8-1.7-13.3-5
		c-3.4-3.3-5.1-8.2-5.1-14.5V14.4h5.7v25.8c0,4.9,1.2,8.7,3.7,11.3c2.5,2.6,5.8,3.9,10.1,3.9c4.4,0,7.8-1.4,10.4-4.1
		c2.6-2.8,3.9-6.8,3.9-12.2V14.4H282.6z"/>
	<path class="st0" d="M295.8,81l0-66.6l5.7,0l0,9.9c1.4-3,3.7-5.6,6.8-7.6c3.1-2,6.9-3,11.1-3c4.1,0,7.8,1,11.1,2.9
		c3.3,1.9,5.9,4.6,7.7,8.1c1.8,3.5,2.8,7.6,2.8,12.2c0,4.6-0.9,8.7-2.8,12.3c-1.8,3.5-4.4,6.3-7.7,8.2c-3.3,1.9-7,2.9-11.1,2.9
		c-4.2,0-8-1-11.1-3s-5.4-4.6-6.9-7.6l0,31.3H295.8z M318.4,18.8c-3.1,0-5.9,0.8-8.5,2.2c-2.6,1.5-4.6,3.6-6.1,6.4s-2.2,6-2.2,9.6
		c0,3.6,0.8,6.9,2.2,9.6c1.5,2.7,3.5,4.9,6.1,6.4c2.6,1.5,5.4,2.2,8.5,2.2c3.2,0,6.1-0.7,8.6-2.2c2.5-1.5,4.5-3.6,6-6.4
		c1.5-2.8,2.2-6,2.2-9.7c0-3.7-0.7-7-2.2-9.7c-1.5-2.7-3.5-4.8-6-6.2C324.5,19.5,321.6,18.8,318.4,18.8z"/>
	<path class="st0" d="M308.4,16.8c3.1-2,6.8-3,11.1-3c4.1,0,7.8,1,11.1,2.9s5.9,4.6,7.7,8.1c1.8,3.5,2.8,7.6,2.8,12.2
		s-0.9,8.7-2.8,12.3c-1.9,3.5-4.4,6.3-7.7,8.2c-3.3,1.9-7,2.9-11.1,2.9c-4.3,0-8-1-11.1-3c-3.1-2-5.4-4.5-6.9-7.6V81h-5.7V14.4h5.7
		v9.9C303,21.3,305.3,18.8,308.4,16.8z M333,27.2c-1.5-2.7-3.5-4.8-6-6.3c-2.5-1.4-5.4-2.2-8.6-2.2c-3.1,0-5.9,0.7-8.5,2.2
		s-4.6,3.6-6.1,6.4c-1.5,2.8-2.2,6-2.2,9.6s0.7,6.8,2.2,9.6c1.5,2.8,3.5,4.9,6.1,6.4s5.4,2.2,8.5,2.2c3.2,0,6.1-0.7,8.6-2.2
		c2.5-1.5,4.5-3.6,6-6.4c1.5-2.8,2.2-6,2.2-9.7C335.2,33.2,334.5,29.9,333,27.2z"/>
	<path class="st0" d="M371.5,60.3c-4.2,0-8.1-1-11.5-2.9c-3.4-1.9-6.1-4.6-8-8.1c-2-3.5-2.9-7.6-2.9-12.3c0-4.7,1-8.8,3-12.3
		c2-3.5,4.7-6.2,8.1-8.1c3.4-1.9,7.3-2.9,11.5-2.9c4.2,0,8.1,1,11.6,2.9c3.4,1.9,6.2,4.6,8.1,8.1c2,3.5,2.9,7.6,2.9,12.3
		c0,4.6-1,8.7-3,12.3s-4.7,6.3-8.2,8.2C379.7,59.3,375.8,60.3,371.5,60.3z M371.6,18.8c-3,0-5.8,0.7-8.3,2c-2.5,1.3-4.6,3.4-6.1,6.1
		C355.8,29.7,355,33,355,37s0.8,7.3,2.3,10.1c1.5,2.7,3.5,4.8,6,6.1c2.5,1.3,5.3,2,8.2,2c3,0,5.8-0.7,8.3-2s4.6-3.4,6.2-6.1
		c1.6-2.7,2.4-6.1,2.4-10.1c0-4-0.8-7.3-2.3-10.1c-1.5-2.7-3.6-4.8-6.1-6.1C377.4,19.5,374.6,18.8,371.6,18.8z"/>
	<path class="st0" d="M360.1,57.4c-3.4-1.9-6.1-4.6-8-8.1c-2-3.5-2.9-7.6-2.9-12.3c0-4.7,1-8.8,3-12.3c2-3.5,4.7-6.2,8.1-8.1
		c3.4-1.9,7.3-2.9,11.5-2.9c4.3,0,8.1,1,11.6,2.9c3.5,1.9,6.2,4.6,8.1,8.1c2,3.5,2.9,7.6,2.9,12.3c0,4.6-1,8.7-3,12.3
		c-2,3.5-4.7,6.3-8.2,8.2c-3.5,1.9-7.3,2.9-11.6,2.9S363.5,59.3,360.1,57.4z M379.8,53.2c2.5-1.4,4.6-3.4,6.2-6.1
		c1.6-2.7,2.4-6.1,2.4-10.1s-0.8-7.3-2.3-10.1c-1.5-2.7-3.6-4.8-6.1-6.1c-2.5-1.4-5.3-2-8.3-2c-3,0-5.7,0.7-8.3,2
		c-2.5,1.4-4.6,3.4-6.1,6.1C355.7,29.7,355,33,355,37s0.8,7.3,2.3,10.1c1.5,2.7,3.5,4.8,6,6.1c2.5,1.4,5.3,2,8.2,2
		C374.5,55.2,377.3,54.5,379.8,53.2z"/>
</g>
<text transform="matrix(1 0 0 1 106.515 308.7333)" class="st0" style="font-family:'Poppins-Light'; font-size:82.8255px;">Grupo</text>
</svg>
